# xmcd CD database file
#
# Track frame offsets:
#	150
#	13609
#	23708
#	36842
#	52226
#	65543
#	78907
#	91410
#	102462
#	115547
#	130010
#	145577
#	163460
#
# Disc length: 2340 seconds
#
# Revision: 0
# Processed by: cddbd v1.5PL3 Copyright (c) Steve Scherf et al.
# Submitted via: CDex 1.51
#
DISCID=a909220d
DTITLE=Pumuckl - Der frechste Kobold der Welt - Pumuckls Kobold- und Klabauterlieder
DYEAR=1999
DGENRE=Child
TTITLE0=Ahoi-Juhe
TTITLE1=Es leben die Klabauter
TTITLE2=Geburtstag ist ein schöner Tag
TTITLE3=Ich male wie ein Wilder
TTITLE4=Links ein Arm und rechts ein Arm
TTITLE5=Pumuckl muß nicht zur Schule
TTITLE6=Affenschweinekrokofant
TTITLE7=Sehr verehrter Nikolaus
TTITLE8=Da bin ich nun allein zu Haus
TTITLE9=Orchestronika
TTITLE10=Pumuckl's Seemannslied
TTITLE11=Schlaf ein, schlaf ein, schlaf ein
TTITLE12=AhoiJuhe (Pumuckl's Kinderparty Mix) 
EXTD=YEAR: 1999
EXTT0=
EXTT1=
EXTT2=
EXTT3=
EXTT4=
EXTT5=
EXTT6=
EXTT7=
EXTT8=
EXTT9=
EXTT10=
EXTT11=
EXTT12=
PLAYORDER=
